<svg width="27" height="26" viewBox="0 0 27 26" fill="none" xmlns="http://www.w3.org/2000/svg">
<g clip-path="url(#clip0_10_23)">
<path d="M11.108 12.2199C11.6683 11.9485 12.0919 11.6463 12.3822 11.3196C12.8986 10.7313 13.1535 9.95125 13.1535 8.98429C13.1535 8.04334 12.8986 7.2389 12.389 6.56447C11.5384 5.46588 10.0988 4.90358 8.06354 4.87433H0V20.7243H7.51843C8.36562 20.7243 9.15038 20.6544 9.87606 20.5114C10.6017 20.3667 11.2295 20.1018 11.7612 19.715C12.2337 19.3786 12.6286 18.961 12.9425 18.4686C13.4387 17.7243 13.6867 16.8808 13.6867 15.9415C13.6867 15.0314 13.469 14.2562 13.037 13.6192C12.5999 12.9821 11.9586 12.5157 11.108 12.2199ZM3.32634 7.6273H6.95813C7.75639 7.6273 8.41457 7.71019 8.93098 7.87432C9.52841 8.11322 9.82712 8.59913 9.82712 9.34019C9.82712 10.0049 9.59929 10.4697 9.14869 10.7313C8.69471 10.993 8.10573 11.1246 7.38342 11.1246H3.32634V7.6273ZM9.06937 17.695C8.66771 17.8819 8.10235 17.9745 7.37836 17.9745H3.32634V13.7476H7.43405C8.14961 13.7524 8.70653 13.8434 9.10481 14.0141C9.81362 14.3229 10.1663 14.8884 10.1663 15.7156C10.1663 16.6907 9.8018 17.3472 9.06937 17.695Z" fill="white"/>
<path d="M24.405 5.61377H17.2545V7.58668H24.405V5.61377Z" fill="white"/>
<path d="M26.8891 13.3998C26.7406 12.4816 26.4132 11.6739 25.9035 10.9767C25.3449 10.1869 24.6361 9.60834 23.7737 9.24268C22.9147 8.8754 21.9477 8.69176 20.871 8.69339C19.0635 8.69339 17.5953 9.2378 16.4595 10.3185C15.3271 11.4025 14.7601 12.961 14.7601 14.9924C14.7601 17.1587 15.3862 18.7237 16.6452 19.6842C17.8991 20.6462 19.3471 21.1257 20.9908 21.1257C22.9805 21.1257 24.5281 20.5552 25.6335 19.4176C26.3406 18.6993 26.7406 17.9924 26.8284 17.2985H23.5341C23.3434 17.6414 23.1223 17.9095 22.8692 18.1045C22.4101 18.4621 21.8127 18.6408 21.0803 18.6408C20.3833 18.6408 19.7926 18.4929 19.2998 18.1988C18.4864 17.7275 18.0611 16.9019 18.0071 15.727H26.9971C27.0106 14.7145 26.9769 13.9361 26.8891 13.3998ZM18.0881 13.7037C18.2062 12.9415 18.4931 12.3369 18.9488 11.89C19.4044 11.4447 20.0491 11.2205 20.8744 11.2188C21.6355 11.2188 22.2717 11.4285 22.7898 11.8494C23.3012 12.2736 23.5898 12.8895 23.6489 13.7037H18.0881Z" fill="white"/>
</g>
<defs>
<clipPath id="clip0_10_23">
<rect width="27" height="26" fill="white"/>
</clipPath>
</defs>
</svg>
