<svg width="31" height="30" viewBox="0 0 31 30" fill="none" xmlns="http://www.w3.org/2000/svg">
<g clip-path="url(#clip0_1120_31)">
<path d="M12.3767 14.4583C12.9992 14.156 13.4699 13.8192 13.7924 13.4553C14.3662 12.7999 14.6494 11.9309 14.6494 10.8536C14.6494 9.80536 14.3662 8.90917 13.7999 8.15782C12.8549 6.93392 11.2553 6.30749 8.99391 6.2749H0.0344238V23.9326H8.38823C9.32956 23.9326 10.2015 23.8548 11.0078 23.6955C11.8141 23.5343 12.5117 23.2392 13.1024 22.8083C13.6274 22.4336 14.0662 21.9683 14.415 21.4197C14.9663 20.5905 15.2419 19.6508 15.2419 18.6044C15.2419 17.5905 15 16.7269 14.52 16.0172C14.0343 15.3075 13.3218 14.7878 12.3767 14.4583ZM3.73035 9.34188H7.76568C8.65263 9.34188 9.38394 9.43421 9.95774 9.61707C10.6215 9.88322 10.9534 10.4246 10.9534 11.2501C10.9534 11.9906 10.7003 12.5084 10.1996 12.7999C9.69522 13.0914 9.04079 13.2381 8.23822 13.2381H3.73035V9.34188ZM10.1115 20.5579C9.66521 20.7661 9.03704 20.8693 8.2326 20.8693H3.73035V16.1602H8.29448C9.08954 16.1656 9.70834 16.267 10.1509 16.4571C10.9384 16.8011 11.3304 17.4312 11.3304 18.3527C11.3304 19.439 10.9253 20.1704 10.1115 20.5579Z" fill="white"/>
<path d="M27.1511 7.09863H19.2061V9.29657H27.1511V7.09863Z" fill="white"/>
<path d="M29.9113 15.773C29.7463 14.7501 29.3825 13.8502 28.8162 13.0735C28.1955 12.1936 27.408 11.5491 26.4498 11.1417C25.4953 10.7326 24.4208 10.528 23.2245 10.5298C21.2162 10.5298 19.5848 11.1363 18.3228 12.3403C17.0646 13.5479 16.4346 15.2842 16.4346 17.5473C16.4346 19.9607 17.1303 21.7042 18.5291 22.7742C19.9224 23.846 21.5312 24.3801 23.3576 24.3801C25.5684 24.3801 27.288 23.7446 28.5162 22.4772C29.3019 21.677 29.7463 20.8894 29.8438 20.1164H26.1835C25.9716 20.4984 25.7259 20.7971 25.4447 21.0144C24.9346 21.4127 24.2708 21.6118 23.457 21.6118C22.6826 21.6118 22.0263 21.4471 21.4787 21.1194C20.5749 20.5943 20.1024 19.6746 20.0424 18.3656H30.0313C30.0463 17.2377 30.0088 16.3704 29.9113 15.773ZM20.1324 16.1115C20.2636 15.2624 20.5824 14.5889 21.0887 14.091C21.595 13.595 22.3113 13.3451 23.2282 13.3433C24.0739 13.3433 24.7809 13.5769 25.3565 14.0458C25.9247 14.5183 26.2454 15.2045 26.311 16.1115H20.1324Z" fill="white"/>
</g>
<defs>
<clipPath id="clip0_1120_31">
<rect width="30" height="28.9655" fill="white" transform="translate(0.0344238 0.844727)"/>
</clipPath>
</defs>
</svg>
