<svg width="32" height="32" viewBox="0 0 32 32" fill="none" xmlns="http://www.w3.org/2000/svg">
<mask id="mask0_1120_17" style="mask-type:alpha" maskUnits="userSpaceOnUse" x="0" y="0" width="32" height="32">
<rect width="32" height="32" fill="#D9D9D9"/>
</mask>
<g mask="url(#mask0_1120_17)">
<path d="M16 29.3332C14.1555 29.3332 12.4222 28.9832 10.8 28.2832C9.17774 27.5832 7.76663 26.6332 6.56663 25.4332C5.36663 24.2332 4.41663 22.8221 3.71663 21.1998C3.01663 19.5776 2.66663 17.8443 2.66663 15.9998C2.66663 14.1554 3.01663 12.4221 3.71663 10.7998C4.41663 9.17761 5.36663 7.7665 6.56663 6.5665C7.76663 5.3665 9.17774 4.4165 10.8 3.7165C12.4222 3.0165 14.1555 2.6665 16 2.6665C17.8444 2.6665 19.5777 3.0165 21.2 3.7165C22.8222 4.4165 24.2333 5.3665 25.4333 6.5665C26.6333 7.7665 27.5833 9.17761 28.2833 10.7998C28.9833 12.4221 29.3333 14.1554 29.3333 15.9998V17.9332C29.3333 19.2443 28.8833 20.3609 27.9833 21.2832C27.0833 22.2054 25.9777 22.6665 24.6666 22.6665C23.8888 22.6665 23.1555 22.4998 22.4666 22.1665C21.7777 21.8332 21.2 21.3554 20.7333 20.7332C20.0888 21.3776 19.3611 21.8609 18.55 22.1832C17.7388 22.5054 16.8888 22.6665 16 22.6665C14.1555 22.6665 12.5833 22.0165 11.2833 20.7165C9.98329 19.4165 9.33329 17.8443 9.33329 15.9998C9.33329 14.1554 9.98329 12.5832 11.2833 11.2832C12.5833 9.98317 14.1555 9.33317 16 9.33317C17.8444 9.33317 19.4166 9.98317 20.7166 11.2832C22.0166 12.5832 22.6666 14.1554 22.6666 15.9998V17.9332C22.6666 18.5109 22.8555 18.9998 23.2333 19.3998C23.6111 19.7998 24.0888 19.9998 24.6666 19.9998C25.2444 19.9998 25.7222 19.7998 26.1 19.3998C26.4777 18.9998 26.6666 18.5109 26.6666 17.9332V15.9998C26.6666 13.0221 25.6333 10.4998 23.5666 8.43317C21.5 6.3665 18.9777 5.33317 16 5.33317C13.0222 5.33317 10.5 6.3665 8.43329 8.43317C6.36663 10.4998 5.33329 13.0221 5.33329 15.9998C5.33329 18.9776 6.36663 21.4998 8.43329 23.5665C10.5 25.6332 13.0222 26.6665 16 26.6665H22.6666V29.3332H16ZM16 19.9998C17.1111 19.9998 18.0555 19.6109 18.8333 18.8332C19.6111 18.0554 20 17.1109 20 15.9998C20 14.8887 19.6111 13.9443 18.8333 13.1665C18.0555 12.3887 17.1111 11.9998 16 11.9998C14.8888 11.9998 13.9444 12.3887 13.1666 13.1665C12.3888 13.9443 12 14.8887 12 15.9998C12 17.1109 12.3888 18.0554 13.1666 18.8332C13.9444 19.6109 14.8888 19.9998 16 19.9998Z" fill="#921C57"/>
</g>
</svg>
