<svg width="50" height="14" viewBox="0 0 50 14" fill="none" xmlns="http://www.w3.org/2000/svg">
<path d="M50 1.88858C50 0.84986 49.1816 0 48.1429 0C47.1356 0 46.3015 0.834122 46.3015 1.88858C46.3015 2.9273 47.1199 3.77716 48.1429 3.77716C49.1816 3.79289 50 2.94303 50 1.88858ZM48.1429 3.2578C47.4347 3.2578 46.8838 2.65975 46.8838 1.88858C46.8838 1.13315 47.4347 0.535099 48.1429 0.535099C48.8668 0.535099 49.4334 1.13315 49.4334 1.88858C49.4334 2.65975 48.8668 3.2578 48.1429 3.2578Z" fill="white"/>
<path d="M48.647 2.04616C48.7415 2.01468 48.9461 1.87304 48.9461 1.57401C48.9461 1.21203 48.71 0.991699 48.3165 0.991699H47.4824V2.77011H48.0333V2.17206H48.1749L48.4267 2.77011H49.0248L48.6943 2.15632C48.6628 2.06189 48.647 2.04616 48.647 2.04616ZM48.1749 1.79435H48.0333V1.36941H48.1749C48.3008 1.36941 48.3638 1.43237 48.3638 1.57401C48.3795 1.71565 48.3008 1.79435 48.1749 1.79435Z" fill="white"/>
<path d="M9.11248 3.35191C9.89475 3.35191 10.5289 2.71775 10.5289 1.93548C10.5289 1.1532 9.89475 0.519043 9.11248 0.519043C8.3302 0.519043 7.69604 1.1532 7.69604 1.93548C7.69604 2.71775 8.3302 3.35191 9.11248 3.35191Z" fill="white"/>
<path d="M10.5918 4.28019H4.10766V3.85526C4.10766 3.02114 4.94178 3.0054 5.36671 3.0054C5.85459 3.0054 6.07493 3.05262 6.07493 3.05262V0.754846C6.07493 0.754846 5.63426 0.691895 5.03621 0.691895C3.68273 0.691895 1.18036 1.06961 1.18036 3.93395V4.29593H0V6.42058H1.18036V10.906H0.0786908V13.0306H5.39819V10.906H4.10766V6.42058H7.64874V10.906H6.54707V13.0306H11.6934V10.906H10.5918V4.28019ZM21.6085 4.28019H16.9657V6.40484H17.7526L16.7454 9.55247C16.5565 10.0718 16.5093 10.7014 16.5093 10.7014H16.4464C16.4464 10.7014 16.3992 10.0718 16.2103 9.55247L15.2031 6.40484H15.99V4.28019H11.3472V6.40484H12.323L14.7466 13.0149H18.209L20.6327 6.40484H21.6085V4.28019ZM30.2015 8.29342C30.2015 5.86975 28.7379 4.0756 26.1411 4.0756C23.3239 4.0756 21.5927 6.07434 21.5927 8.63966C21.5927 10.9689 23.2767 13.2195 26.3929 13.2195C28.7536 13.2195 30.1543 11.9919 30.1543 11.9919L29.0841 9.96167C29.0841 9.96167 27.9195 10.7958 26.629 10.7958C25.7004 10.7958 24.8191 10.3079 24.5987 9.1905H30.1386C30.1228 9.17476 30.2015 8.57671 30.2015 8.29342ZM24.6617 7.56947C24.8191 6.89273 25.2283 6.27894 26.0624 6.27894C26.7076 6.27894 27.1641 6.87699 27.1641 7.56947H24.6617ZM42.6189 6.29468H42.5874C42.5874 6.29468 42.6189 6.12156 42.6189 5.85401V5.3976C42.6189 4.59496 42.1782 4.28019 41.3756 4.28019H38.6214V6.40484H39.4398C39.6759 6.40484 39.8175 6.54649 39.8175 6.78256V10.906H38.6372V13.0306H43.9409V10.906H42.7606V9.63116C42.7606 8.04161 43.5475 7.00289 45.1685 7.00289C45.5305 7.00289 45.7665 7.05011 45.7665 7.05011V4.17003C45.7665 4.17003 45.5934 4.13855 45.4203 4.13855C44.0983 4.12281 42.9966 5.09858 42.6189 6.29468ZM34.86 6.29468H34.8285C34.8285 6.29468 34.86 6.12156 34.86 5.85401V5.3976C34.86 4.59496 34.4193 4.28019 33.6167 4.28019H30.8625V6.40484H31.6809C31.917 6.40484 32.0586 6.54649 32.0586 6.78256V10.906H30.8783V13.0306H36.182V10.906H35.0017V9.63116C35.0017 8.04161 35.7886 7.00289 37.4096 7.00289C37.7716 7.00289 38.0076 7.05011 38.0076 7.05011V4.17003C38.0076 4.17003 37.8345 4.13855 37.6614 4.13855C36.3237 4.12281 35.222 5.09858 34.86 6.29468Z" fill="white"/>
</svg>
