<svg width="26" height="26" viewBox="0 0 26 26" fill="none" xmlns="http://www.w3.org/2000/svg">
<g clip-path="url(#clip0_1120_22)">
<path d="M25.9936 25.9999V25.9988H26.0001V16.4633C26.0001 11.7985 24.9959 8.20508 19.5424 8.20508C16.9207 8.20508 15.1614 9.64375 14.4431 11.0077H14.3673V8.64058H9.19653V25.9988H14.5807V17.4037C14.5807 15.1406 15.0097 12.9522 17.8123 12.9522C20.5737 12.9522 20.6149 15.5349 20.6149 17.5488V25.9999H25.9936Z" fill="white"/>
<path d="M0.428955 8.6416H5.81962V25.9999H0.428955V8.6416Z" fill="white"/>
<path d="M3.12217 0C1.39858 0 0 1.39858 0 3.12217C0 4.84575 1.39858 6.27358 3.12217 6.27358C4.84575 6.27358 6.24433 4.84575 6.24433 3.12217C6.24325 1.39858 4.84467 0 3.12217 0V0Z" fill="white"/>
</g>
<defs>
<clipPath id="clip0_1120_22">
<rect width="26" height="26" fill="white"/>
</clipPath>
</defs>
</svg>
